<svg width="426" height="144" viewBox="0 0 426 144" fill="none" xmlns="http://www.w3.org/2000/svg">
<path d="M181.174 73.8474C181.174 93.8352 165.537 108.563 146.348 108.563C127.158 108.563 111.521 93.8352 111.521 73.8474C111.521 53.7187 127.158 39.1309 146.348 39.1309C165.537 39.1309 181.174 53.7187 181.174 73.8474ZM165.928 73.8474C165.928 61.357 156.866 52.8109 146.348 52.8109C135.829 52.8109 126.767 61.357 126.767 73.8474C126.767 86.2126 135.829 94.8839 146.348 94.8839C156.866 94.8839 165.928 86.197 165.928 73.8474Z" fill="#605E5E"/>
<path d="M256.305 73.8474C256.305 93.8352 240.668 108.563 221.478 108.563C202.289 108.563 186.652 93.8352 186.652 73.8474C186.652 53.7343 202.289 39.1309 221.478 39.1309C240.668 39.1309 256.305 53.7187 256.305 73.8474ZM241.059 73.8474C241.059 61.357 231.997 52.8109 221.478 52.8109C210.96 52.8109 201.898 61.357 201.898 73.8474C201.898 86.2126 210.96 94.8839 221.478 94.8839C231.997 94.8839 241.059 86.197 241.059 73.8474Z" fill="#605E5E"/>
<path d="M328.304 41.2283V103.555C328.304 129.193 313.184 139.664 295.309 139.664C278.483 139.664 268.356 128.41 264.537 119.207L277.81 113.682C280.174 119.332 285.965 126 295.294 126C306.735 126 313.826 118.941 313.826 105.652V100.659H313.294C309.881 104.869 303.308 108.548 295.012 108.548C277.654 108.548 261.751 93.4283 261.751 73.9726C261.751 54.3761 277.654 39.1309 295.012 39.1309C303.292 39.1309 309.866 42.8091 313.294 46.8943H313.826V41.2439H328.304V41.2283ZM314.906 73.9726C314.906 61.7483 306.751 52.8109 296.374 52.8109C285.855 52.8109 277.043 61.7483 277.043 73.9726C277.043 86.0717 285.855 94.8839 296.374 94.8839C306.751 94.8839 314.906 86.0717 314.906 73.9726Z" fill="#605E5E"/>
<path d="M352.174 4.69531V106.435H337.305V4.69531H352.174Z" fill="#605E5E"/>
<path d="M410.118 85.2726L421.951 93.1613C418.132 98.8117 408.928 108.548 393.026 108.548C373.304 108.548 358.575 93.3022 358.575 73.8309C358.575 53.1856 373.429 39.1143 391.32 39.1143C409.335 39.1143 418.147 53.4517 421.027 61.1996L422.608 65.1439L376.2 84.3648C379.753 91.33 385.278 94.883 393.026 94.883C400.789 94.883 406.173 91.0639 410.118 85.2726ZM373.695 72.7822L404.718 59.9004C403.012 55.5648 397.878 52.5439 391.836 52.5439C384.088 52.5439 373.304 59.3839 373.695 72.7822Z" fill="#605E5E"/>
<path d="M55.2365 64.8163V50.0876H104.87C105.355 52.6546 105.605 55.6911 105.605 58.9781C105.605 70.0285 102.584 83.6929 92.8487 93.4285C83.3791 103.289 71.28 108.548 55.2522 108.548C25.5443 108.548 0.563477 84.3502 0.563477 54.6424C0.563477 24.9346 25.5443 0.736328 55.2522 0.736328C71.687 0.736328 83.3948 7.18503 92.1913 15.5903L81.7983 25.9833C75.4904 20.0668 66.9443 15.465 55.2365 15.465C33.5426 15.465 16.5757 32.9485 16.5757 54.6424C16.5757 76.3363 33.5426 93.8198 55.2365 93.8198C69.3078 93.8198 77.3217 88.1694 82.4557 83.0355C86.6191 78.872 89.3583 72.9242 90.4383 64.8007L55.2365 64.8163Z" fill="#605E5E"/>
</svg>
